<svg width="110" height="28" viewBox="0 0 110 28" fill="none" xmlns="http://www.w3.org/2000/svg">
<path d="M12.0363 18.7086L11.6116 18.284L3.86217 10.5345L2.83737 9.50969C1.79017 8.46249 0.000976562 9.20449 0.000976562 10.6848V26.3386C0.000976562 27.2561 0.744842 28 1.66231 28H4.40724C4.84777 28 5.27057 27.8245 5.5823 27.5137L5.75777 27.3382L8.7435 24.3525L12.0363 21.0597C12.685 20.411 12.685 19.3582 12.0363 18.7096V18.7086Z" fill="#FF4405"/>
<path d="M3.76133 7.52267C5.83865 7.52267 7.52266 5.83866 7.52266 3.76133C7.52266 1.68401 5.83865 0 3.76133 0C1.684 0 0 1.68401 0 3.76133C0 5.83866 1.684 7.52267 3.76133 7.52267Z" fill="#FF4405"/>
<path d="M29.3194 10.6446V26.3386C29.3194 27.2561 28.5755 28 27.658 28H11.964C10.4838 28 9.74178 26.2098 10.789 25.1636L14.639 21.3136L15.492 20.4614L16.0688 19.8846L21.9899 13.9636L26.483 9.4705C27.5302 8.4233 29.3194 9.1653 29.3194 10.6456V10.6446Z" fill="#FF4405"/>
<path d="M25.5582 7.52267C27.6355 7.52267 29.3195 5.83866 29.3195 3.76133C29.3195 1.68401 27.6355 0 25.5582 0C23.4809 0 21.7969 1.68401 21.7969 3.76133C21.7969 5.83866 23.4809 7.52267 25.5582 7.52267Z" fill="#FF4405"/>
<path d="M14.6595 5.5944C16.2043 5.5944 17.4567 4.34205 17.4567 2.7972C17.4567 1.25235 16.2043 0 14.6595 0C13.1147 0 11.8623 1.25235 11.8623 2.7972C11.8623 4.34205 13.1147 5.5944 14.6595 5.5944Z" fill="#FF4405"/>
<path d="M19.6347 11.4218L15.5171 7.30425C15.0433 6.83041 14.2751 6.83041 13.8012 7.30425L9.6837 11.4218C9.20987 11.8956 9.20987 12.6639 9.6837 13.1377L13.8012 17.2552C14.2751 17.7291 15.0433 17.7291 15.5171 17.2552L19.6347 13.1377C20.1085 12.6638 20.1085 11.8956 19.6347 11.4218Z" fill="#FF4405"/>
<path d="M36.9316 7.34534H42.4458V9.2176H38.9355V11.8645H42.2852V13.7368H38.9355V18.1683H36.9316V7.34534Z" fill="black"/>
<path d="M52.0249 18.1682H50.2404V17.1593C49.6262 17.8901 48.4269 18.4314 47.403 18.4314C45.3114 18.4314 43.4541 16.7645 43.4541 14.0587C43.4541 11.5723 45.2676 9.7738 47.5197 9.7738C49.1726 9.7738 50.1526 10.9582 50.2105 11.0758H50.2404V10.0519H52.0249V18.1691V18.1682ZM47.8128 11.5574C46.2186 11.5574 45.3992 12.9322 45.3992 14.1465C45.3992 15.5213 46.423 16.6478 47.8128 16.6478C49.2025 16.6478 50.1825 15.595 50.1825 14.0886C50.1825 12.4067 48.9682 11.5583 47.8128 11.5583V11.5574Z" fill="black"/>
<path d="M53.501 10.051H55.2855V10.7379H55.3144C55.475 10.4747 56.0312 9.77283 57.435 9.77283C57.8736 9.77283 59.0142 9.87549 59.7748 11.045C60.6232 9.83069 61.8226 9.77283 62.3928 9.77283C63.987 9.77283 64.7775 10.6212 65.0696 11.031C65.3916 11.4547 65.6838 12.2303 65.6838 13.4296V18.1682H63.7387V13.6639C63.7387 13.1963 63.7387 11.5574 62.2034 11.5574C61.662 11.5574 61.1356 11.8495 60.8575 12.318C60.5794 12.7567 60.5654 13.4735 60.5654 13.971V18.1682H58.6203V13.6639C58.6203 12.5523 58.1966 11.5574 56.9972 11.5574C55.447 11.5574 55.447 13.2542 55.447 14.1166V18.1682H53.5019V10.051H53.501Z" fill="black"/>
<path d="M67.2344 7.34534H69.1794V9.12987H67.2344V7.34534ZM67.2344 10.0511H69.1794V18.1683H67.2344V10.0511Z" fill="black"/>
<path d="M70.7588 7.34534H72.7038V18.1683H70.7588V7.34534Z" fill="black"/>
<path d="M76.5646 17.4076L73.5957 10.051H75.8189L77.6622 15.2581L79.6222 10.051H81.8305L77.1648 20.874H75.0732L76.5646 17.4076Z" fill="black"/>
<path d="M87.1084 7.34534H89.1123V16.296H92.4181V18.1683H87.1093V7.34534H87.1084Z" fill="black"/>
<path d="M93.2646 7.34534H95.2097V9.12987H93.2646V7.34534ZM93.2646 10.0511H95.2097V18.1683H93.2646V10.0511Z" fill="black"/>
<path d="M96.9066 11.7768H96.2188V10.051H96.9066C96.9505 9.50971 97.0382 8.51571 97.8577 7.78398C98.3113 7.36024 98.9543 7.12598 99.5545 7.12598H100.096V9.04211C99.3501 9.05704 98.9114 9.07104 98.8526 10.051H99.9931V11.7768H98.8526V18.1682H96.9075V11.7768H96.9066Z" fill="black"/>
<path d="M102.597 14.9799C102.684 15.5063 103.445 16.6478 104.835 16.6478C105.698 16.6478 106.341 16.2819 106.707 15.609H108.755C108.287 17.0715 106.751 18.4314 104.836 18.4314C102.364 18.4314 100.55 16.5012 100.55 14.1315C100.55 11.7618 102.247 9.77283 104.821 9.77283C107.395 9.77283 109.018 11.9522 109.018 13.9999C109.018 14.3798 108.959 14.7167 108.901 14.9799H102.598H102.597ZM107.027 13.4147C106.808 12.1127 105.872 11.5574 104.834 11.5574C104.044 11.5574 102.903 11.9083 102.538 13.4147H107.028H107.027Z" fill="black"/>
</svg>
