<svg width="292" height="339" viewBox="0 0 292 339" fill="none" xmlns="http://www.w3.org/2000/svg">
<rect x="23" y="44" width="246" height="275" rx="24" fill="url(#paint0_linear_0_1)" fill-opacity="0.5"/>
<rect opacity="0.7" x="83.6665" y="90.2004" width="125.693" height="69.8295" rx="13" fill="url(#paint1_linear_0_1)"/>
<rect opacity="0.7" x="83.6665" y="141.595" width="125.693" height="69.8295" rx="13" fill="url(#paint2_linear_0_1)"/>
<rect opacity="0.7" x="83.6665" y="192.989" width="125.693" height="69.8295" rx="13" fill="url(#paint3_linear_0_1)"/>
<mask id="mask0_0_1" style="mask-type:alpha" maskUnits="userSpaceOnUse" x="68" y="74" width="33" height="33">
<circle cx="84.7794" cy="90.1959" r="16.1959" fill="url(#paint4_linear_0_1)"/>
</mask>
<g mask="url(#mask0_0_1)">
<circle cx="84.7794" cy="90.1959" r="16.1959" fill="url(#paint5_linear_0_1)"/>
<rect opacity="0.4" x="73.6162" y="74" width="18.2978" height="18.2978" rx="4.12307" fill="url(#paint6_linear_0_1)"/>
<rect opacity="0.4" x="65.7905" y="88.1548" width="18.2978" height="18.2978" rx="4.12307" fill="url(#paint7_linear_0_1)"/>
<rect opacity="0.4" x="76.8389" y="96.0953" width="18.2978" height="18.2978" rx="4.12307" fill="url(#paint8_linear_0_1)"/>
<rect opacity="0.4" x="85.4697" y="78.1428" width="18.2978" height="18.2978" rx="4.12307" fill="url(#paint9_linear_0_1)"/>
</g>
<path d="M80.311 94.6637C80.311 92.9882 82.5449 92.9882 83.6619 91.8713C84.2204 91.3128 82.5449 91.3128 82.5449 88.5204C82.5449 86.659 83.2894 85.728 84.7789 85.728C86.2683 85.728 87.0128 86.659 87.0128 88.5204C87.0128 91.3128 85.3373 91.3128 85.8958 91.8713C87.0128 92.9882 89.2467 92.9882 89.2467 94.6637" stroke="white" stroke-width="1.99943" stroke-linecap="round" stroke-linejoin="round"/>
<mask id="mask1_0_1" style="mask-type:alpha" maskUnits="userSpaceOnUse" x="193" y="125" width="33" height="33">
<circle cx="209.355" cy="141.59" r="16.1959" fill="url(#paint10_linear_0_1)"/>
</mask>
<g mask="url(#mask1_0_1)">
<circle cx="209.355" cy="141.59" r="16.1959" fill="url(#paint11_linear_0_1)"/>
<rect opacity="0.4" x="198.192" y="125.394" width="18.2978" height="18.2978" rx="4.12307" fill="url(#paint12_linear_0_1)"/>
<rect opacity="0.4" x="190.367" y="139.549" width="18.2978" height="18.2978" rx="4.12307" fill="url(#paint13_linear_0_1)"/>
<rect opacity="0.4" x="201.415" y="147.49" width="18.2978" height="18.2978" rx="4.12307" fill="url(#paint14_linear_0_1)"/>
<rect opacity="0.4" x="210.045" y="129.537" width="18.2978" height="18.2978" rx="4.12307" fill="url(#paint15_linear_0_1)"/>
</g>
<path d="M204.887 146.058C204.887 144.383 207.121 144.383 208.238 143.266C208.796 142.707 207.121 142.707 207.121 139.915C207.121 138.054 207.865 137.123 209.355 137.123C210.844 137.123 211.588 138.054 211.588 139.915C211.588 142.707 209.913 142.707 210.471 143.266C211.588 144.383 213.822 144.383 213.822 146.058" stroke="white" stroke-width="1.99943" stroke-linecap="round" stroke-linejoin="round"/>
<mask id="mask2_0_1" style="mask-type:alpha" maskUnits="userSpaceOnUse" x="67" y="177" width="33" height="34">
<circle cx="83.6617" cy="194.102" r="16.1959" fill="url(#paint16_linear_0_1)"/>
</mask>
<g mask="url(#mask2_0_1)">
<circle cx="83.6617" cy="194.102" r="16.1959" fill="url(#paint17_linear_0_1)"/>
<rect opacity="0.4" x="72.499" y="177.906" width="18.2978" height="18.2978" rx="4.12307" fill="url(#paint18_linear_0_1)"/>
<rect opacity="0.4" x="64.6733" y="192.061" width="18.2978" height="18.2978" rx="4.12307" fill="url(#paint19_linear_0_1)"/>
<rect opacity="0.4" x="75.7212" y="200.002" width="18.2978" height="18.2978" rx="4.12307" fill="url(#paint20_linear_0_1)"/>
<rect opacity="0.4" x="84.3525" y="182.049" width="18.2978" height="18.2978" rx="4.12307" fill="url(#paint21_linear_0_1)"/>
</g>
<path d="M79.1938 198.57C79.1938 196.894 81.4278 196.894 82.5447 195.778C83.1032 195.219 81.4278 195.219 81.4278 192.427C81.4278 190.565 82.1722 189.634 83.6617 189.634C85.1511 189.634 85.8956 190.565 85.8956 192.427C85.8956 195.219 84.2201 195.219 84.7786 195.778C85.8956 196.894 88.1295 196.894 88.1295 198.57" stroke="white" stroke-width="1.99943" stroke-linecap="round" stroke-linejoin="round"/>
<path d="M98.1909 91.8763H169.696" stroke="url(#paint22_linear_0_1)" stroke-width="5.47619" stroke-linecap="round"/>
<path d="M98.1909 194.665H142.882" stroke="url(#paint23_linear_0_1)" stroke-width="5.47619" stroke-linecap="round"/>
<path d="M194.835 143.271L104.336 143.271" stroke="url(#paint24_linear_0_1)" stroke-width="5.47619" stroke-linecap="round"/>
<g filter="url(#filter0_f_0_1)">
<circle cx="4" cy="4" r="4" transform="matrix(1 0 0 -1 275 84)" fill="#FF4405" fill-opacity="0.08"/>
<circle cx="4" cy="4" r="4" transform="matrix(1 0 0 -1 211 12)" fill="#FF4405" fill-opacity="0.08"/>
<circle cx="4" cy="4" r="4" transform="matrix(1 0 0 -1 280 213)" fill="#FF4405" fill-opacity="0.08"/>
<circle cx="4" cy="4" r="4" transform="matrix(1 0 0 -1 101 44)" fill="#FF4405" fill-opacity="0.08"/>
<circle cx="4" cy="4" r="4" transform="matrix(1 0 0 -1 109 335)" fill="#FF4405" fill-opacity="0.08"/>
<circle cx="3.5" cy="3.5" r="3.5" transform="matrix(1 0 0 -1 4 31)" fill="#FF4405" fill-opacity="0.08"/>
<circle cx="4" cy="4" r="4" transform="matrix(1 0 0 -1 7 138)" fill="#FF4405" fill-opacity="0.08"/>
<circle cx="4" cy="4" r="4" transform="matrix(1 0 0 -1 215 268)" fill="#FF4405" fill-opacity="0.08"/>
<ellipse cx="4" cy="3.5" rx="4" ry="3.5" transform="matrix(1 0 0 -1 42 233)" fill="#FF4405" fill-opacity="0.08"/>
</g>
<defs>
<filter id="filter0_f_0_1" x="0" y="0" width="292" height="339" filterUnits="userSpaceOnUse" color-interpolation-filters="sRGB">
<feFlood flood-opacity="0" result="BackgroundImageFix"/>
<feBlend mode="normal" in="SourceGraphic" in2="BackgroundImageFix" result="shape"/>
<feGaussianBlur stdDeviation="2" result="effect1_foregroundBlur_0_1"/>
</filter>
<linearGradient id="paint0_linear_0_1" x1="146" y1="44" x2="146" y2="319" gradientUnits="userSpaceOnUse">
<stop stop-color="#FFD3C4"/>
<stop offset="1" stop-color="white" stop-opacity="0"/>
</linearGradient>
<linearGradient id="paint1_linear_0_1" x1="155.621" y1="-57.9227" x2="159.307" y2="155.746" gradientUnits="userSpaceOnUse">
<stop stop-color="#FF4405"/>
<stop offset="1" stop-color="#FFA78A" stop-opacity="0"/>
</linearGradient>
<linearGradient id="paint2_linear_0_1" x1="155.621" y1="-6.52815" x2="159.307" y2="207.141" gradientUnits="userSpaceOnUse">
<stop stop-color="#FF4405"/>
<stop offset="1" stop-color="#FFA78A" stop-opacity="0"/>
</linearGradient>
<linearGradient id="paint3_linear_0_1" x1="155.621" y1="44.8663" x2="159.307" y2="258.535" gradientUnits="userSpaceOnUse">
<stop stop-color="#FF4405"/>
<stop offset="1" stop-color="#FFA78A" stop-opacity="0"/>
</linearGradient>
<linearGradient id="paint4_linear_0_1" x1="100.975" y1="74" x2="62.9977" y2="88" gradientUnits="userSpaceOnUse">
<stop stop-color="#7B55D3"/>
<stop offset="1" stop-color="#A37DFB"/>
</linearGradient>
<linearGradient id="paint5_linear_0_1" x1="100.975" y1="74" x2="62.9977" y2="88" gradientUnits="userSpaceOnUse">
<stop stop-color="#FF4405"/>
<stop offset="1" stop-color="#FFA78A"/>
</linearGradient>
<linearGradient id="paint6_linear_0_1" x1="93.3107" y1="74" x2="73.6162" y2="91.1105" gradientUnits="userSpaceOnUse">
<stop stop-color="white"/>
<stop offset="0.0001" stop-color="white" stop-opacity="0.2"/>
<stop offset="1" stop-color="white" stop-opacity="0"/>
</linearGradient>
<linearGradient id="paint7_linear_0_1" x1="85.4851" y1="88.1548" x2="65.7905" y2="105.265" gradientUnits="userSpaceOnUse">
<stop stop-color="white"/>
<stop offset="0.0001" stop-color="white" stop-opacity="0.2"/>
<stop offset="1" stop-color="white" stop-opacity="0"/>
</linearGradient>
<linearGradient id="paint8_linear_0_1" x1="96.5334" y1="96.0953" x2="76.8389" y2="113.206" gradientUnits="userSpaceOnUse">
<stop stop-color="white"/>
<stop offset="0.0001" stop-color="white" stop-opacity="0.2"/>
<stop offset="1" stop-color="white" stop-opacity="0"/>
</linearGradient>
<linearGradient id="paint9_linear_0_1" x1="105.164" y1="78.1428" x2="85.4697" y2="95.2533" gradientUnits="userSpaceOnUse">
<stop stop-color="white"/>
<stop offset="0.0001" stop-color="white" stop-opacity="0.2"/>
<stop offset="1" stop-color="white" stop-opacity="0"/>
</linearGradient>
<linearGradient id="paint10_linear_0_1" x1="225.551" y1="125.394" x2="187.573" y2="139.394" gradientUnits="userSpaceOnUse">
<stop stop-color="#7B55D3"/>
<stop offset="1" stop-color="#A37DFB"/>
</linearGradient>
<linearGradient id="paint11_linear_0_1" x1="225.551" y1="125.394" x2="187.573" y2="139.394" gradientUnits="userSpaceOnUse">
<stop stop-color="#FF4405"/>
<stop offset="1" stop-color="#FFA78A"/>
</linearGradient>
<linearGradient id="paint12_linear_0_1" x1="217.886" y1="125.394" x2="198.192" y2="142.505" gradientUnits="userSpaceOnUse">
<stop stop-color="white"/>
<stop offset="0.0001" stop-color="white" stop-opacity="0.2"/>
<stop offset="1" stop-color="white" stop-opacity="0"/>
</linearGradient>
<linearGradient id="paint13_linear_0_1" x1="210.061" y1="139.549" x2="190.367" y2="156.66" gradientUnits="userSpaceOnUse">
<stop stop-color="white"/>
<stop offset="0.0001" stop-color="white" stop-opacity="0.2"/>
<stop offset="1" stop-color="white" stop-opacity="0"/>
</linearGradient>
<linearGradient id="paint14_linear_0_1" x1="221.109" y1="147.49" x2="201.415" y2="164.6" gradientUnits="userSpaceOnUse">
<stop stop-color="white"/>
<stop offset="0.0001" stop-color="white" stop-opacity="0.2"/>
<stop offset="1" stop-color="white" stop-opacity="0"/>
</linearGradient>
<linearGradient id="paint15_linear_0_1" x1="229.74" y1="129.537" x2="210.045" y2="146.648" gradientUnits="userSpaceOnUse">
<stop stop-color="white"/>
<stop offset="0.0001" stop-color="white" stop-opacity="0.2"/>
<stop offset="1" stop-color="white" stop-opacity="0"/>
</linearGradient>
<linearGradient id="paint16_linear_0_1" x1="99.8575" y1="177.906" x2="61.88" y2="191.906" gradientUnits="userSpaceOnUse">
<stop stop-color="#7B55D3"/>
<stop offset="1" stop-color="#A37DFB"/>
</linearGradient>
<linearGradient id="paint17_linear_0_1" x1="99.8575" y1="177.906" x2="61.88" y2="191.906" gradientUnits="userSpaceOnUse">
<stop stop-color="#FF4405"/>
<stop offset="1" stop-color="#FFA78A"/>
</linearGradient>
<linearGradient id="paint18_linear_0_1" x1="92.1936" y1="177.906" x2="72.499" y2="195.017" gradientUnits="userSpaceOnUse">
<stop stop-color="white"/>
<stop offset="0.0001" stop-color="white" stop-opacity="0.2"/>
<stop offset="1" stop-color="white" stop-opacity="0"/>
</linearGradient>
<linearGradient id="paint19_linear_0_1" x1="84.3679" y1="192.061" x2="64.6733" y2="209.172" gradientUnits="userSpaceOnUse">
<stop stop-color="white"/>
<stop offset="0.0001" stop-color="white" stop-opacity="0.2"/>
<stop offset="1" stop-color="white" stop-opacity="0"/>
</linearGradient>
<linearGradient id="paint20_linear_0_1" x1="95.4157" y1="200.002" x2="75.7212" y2="217.112" gradientUnits="userSpaceOnUse">
<stop stop-color="white"/>
<stop offset="0.0001" stop-color="white" stop-opacity="0.2"/>
<stop offset="1" stop-color="white" stop-opacity="0"/>
</linearGradient>
<linearGradient id="paint21_linear_0_1" x1="104.047" y1="182.049" x2="84.3525" y2="199.16" gradientUnits="userSpaceOnUse">
<stop stop-color="white"/>
<stop offset="0.0001" stop-color="white" stop-opacity="0.2"/>
<stop offset="1" stop-color="white" stop-opacity="0"/>
</linearGradient>
<linearGradient id="paint22_linear_0_1" x1="171.931" y1="91.8763" x2="101.543" y2="91.8763" gradientUnits="userSpaceOnUse">
<stop stop-color="#FF4405"/>
<stop offset="1" stop-color="#FF4405" stop-opacity="0"/>
</linearGradient>
<linearGradient id="paint23_linear_0_1" x1="144.278" y1="194.665" x2="100.286" y2="194.665" gradientUnits="userSpaceOnUse">
<stop stop-color="#FF4405"/>
<stop offset="1" stop-color="#FF4405" stop-opacity="0"/>
</linearGradient>
<linearGradient id="paint24_linear_0_1" x1="101.508" y1="143.271" x2="190.593" y2="143.271" gradientUnits="userSpaceOnUse">
<stop stop-color="#FF4405"/>
<stop offset="1" stop-color="#FF4405" stop-opacity="0"/>
</linearGradient>
</defs>
</svg>
