<svg width="292" height="339" viewBox="0 0 292 339" fill="none" xmlns="http://www.w3.org/2000/svg">
<g filter="url(#filter0_f_0_1)">
<circle cx="279" cy="259" r="4" fill="#FF4405" fill-opacity="0.08"/>
<circle cx="215" cy="331" r="4" fill="#FF4405" fill-opacity="0.08"/>
<circle cx="284" cy="130" r="4" fill="#FF4405" fill-opacity="0.08"/>
<circle cx="105" cy="299" r="4" fill="#FF4405" fill-opacity="0.08"/>
<circle cx="113" cy="8" r="4" fill="#FF4405" fill-opacity="0.08"/>
<circle cx="7.5" cy="311.5" r="3.5" fill="#FF4405" fill-opacity="0.08"/>
<circle cx="11" cy="205" r="4" fill="#FF4405" fill-opacity="0.08"/>
<circle cx="219" cy="75" r="4" fill="#FF4405" fill-opacity="0.08"/>
<ellipse cx="46" cy="109.5" rx="4" ry="3.5" fill="#FF4405" fill-opacity="0.08"/>
</g>
<rect x="23" y="44" width="246" height="275" rx="24" fill="url(#paint0_linear_0_1)" fill-opacity="0.5"/>
<rect opacity="0.7" x="75.6074" y="104.792" width="142.281" height="126.354" rx="13" fill="url(#paint1_linear_0_1)"/>
<rect opacity="0.5" x="48" y="147.264" width="197.494" height="115.736" rx="13" fill="url(#paint2_linear_0_1)"/>
<path d="M86.2246 107.978L144.623 107.978" stroke="url(#paint3_linear_0_1)" stroke-width="5.47619" stroke-linecap="round"/>
<path d="M207.27 107.978L148.871 107.978" stroke="url(#paint4_linear_0_1)" stroke-width="5.47619" stroke-linecap="round"/>
<path opacity="0.49" d="M231.747 150L59.7471 150" stroke="url(#paint5_linear_0_1)" stroke-width="5.47619" stroke-linecap="round"/>
<mask id="mask0_0_1" style="mask-type:alpha" maskUnits="userSpaceOnUse" x="115" y="74" width="63" height="62">
<circle cx="146.739" cy="104.783" r="30.7834" fill="url(#paint6_linear_0_1)"/>
</mask>
<g mask="url(#mask0_0_1)">
<circle cx="146.739" cy="104.783" r="30.7834" fill="url(#paint7_linear_0_1)"/>
<rect opacity="0.4" x="125.521" y="74" width="34.7785" height="34.7785" rx="4.12307" fill="url(#paint8_linear_0_1)"/>
<rect opacity="0.4" x="110.647" y="100.904" width="34.7785" height="34.7785" rx="4.12307" fill="url(#paint9_linear_0_1)"/>
<rect opacity="0.4" x="131.646" y="115.997" width="34.7785" height="34.7785" rx="4.12307" fill="url(#paint10_linear_0_1)"/>
<rect opacity="0.4" x="148.051" y="81.8743" width="34.7785" height="34.7785" rx="4.12307" fill="url(#paint11_linear_0_1)"/>
</g>
<path d="M138.784 105.395L144.176 111.428L156.038 98.1558" stroke="white" stroke-width="2.8" stroke-linecap="round" stroke-linejoin="round"/>
<defs>
<filter id="filter0_f_0_1" x="0" y="0" width="292" height="339" filterUnits="userSpaceOnUse" color-interpolation-filters="sRGB">
<feFlood flood-opacity="0" result="BackgroundImageFix"/>
<feBlend mode="normal" in="SourceGraphic" in2="BackgroundImageFix" result="shape"/>
<feGaussianBlur stdDeviation="2" result="effect1_foregroundBlur_0_1"/>
</filter>
<linearGradient id="paint0_linear_0_1" x1="146" y1="44" x2="146" y2="319" gradientUnits="userSpaceOnUse">
<stop stop-color="#FFD3C4"/>
<stop offset="1" stop-color="white" stop-opacity="0"/>
</linearGradient>
<linearGradient id="paint1_linear_0_1" x1="157.058" y1="-163.231" x2="167.715" y2="223.216" gradientUnits="userSpaceOnUse">
<stop stop-color="#FF4405"/>
<stop offset="1" stop-color="#FFA78A" stop-opacity="0"/>
</linearGradient>
<linearGradient id="paint2_linear_0_1" x1="161.058" y1="-98.2365" x2="167.503" y2="255.888" gradientUnits="userSpaceOnUse">
<stop stop-color="#FF4405"/>
<stop offset="1" stop-color="#FFA78A" stop-opacity="0"/>
</linearGradient>
<linearGradient id="paint3_linear_0_1" x1="146.448" y1="107.978" x2="88.9621" y2="107.978" gradientUnits="userSpaceOnUse">
<stop stop-color="#FF4405"/>
<stop offset="1" stop-color="#FF4405" stop-opacity="0"/>
</linearGradient>
<linearGradient id="paint4_linear_0_1" x1="147.046" y1="107.978" x2="204.532" y2="107.978" gradientUnits="userSpaceOnUse">
<stop stop-color="#FF4405"/>
<stop offset="1" stop-color="#FF4405" stop-opacity="0"/>
</linearGradient>
<linearGradient id="paint5_linear_0_1" x1="54.3721" y1="150" x2="223.685" y2="150" gradientUnits="userSpaceOnUse">
<stop stop-color="#FF4405" stop-opacity="0"/>
<stop offset="0.536458" stop-color="#FF4405"/>
<stop offset="1" stop-color="#FF4405" stop-opacity="0"/>
</linearGradient>
<linearGradient id="paint6_linear_0_1" x1="177.522" y1="74" x2="105.338" y2="100.61" gradientUnits="userSpaceOnUse">
<stop stop-color="#7B55D3"/>
<stop offset="1" stop-color="#A37DFB"/>
</linearGradient>
<linearGradient id="paint7_linear_0_1" x1="177.522" y1="74" x2="105.338" y2="100.61" gradientUnits="userSpaceOnUse">
<stop stop-color="#FF4405"/>
<stop offset="1" stop-color="#FFA78A"/>
</linearGradient>
<linearGradient id="paint8_linear_0_1" x1="162.955" y1="74" x2="125.521" y2="106.522" gradientUnits="userSpaceOnUse">
<stop stop-color="white"/>
<stop offset="0.0001" stop-color="white" stop-opacity="0.2"/>
<stop offset="1" stop-color="white" stop-opacity="0"/>
</linearGradient>
<linearGradient id="paint9_linear_0_1" x1="148.081" y1="100.904" x2="110.647" y2="133.426" gradientUnits="userSpaceOnUse">
<stop stop-color="white"/>
<stop offset="0.0001" stop-color="white" stop-opacity="0.2"/>
<stop offset="1" stop-color="white" stop-opacity="0"/>
</linearGradient>
<linearGradient id="paint10_linear_0_1" x1="169.079" y1="115.997" x2="131.646" y2="148.519" gradientUnits="userSpaceOnUse">
<stop stop-color="white"/>
<stop offset="0.0001" stop-color="white" stop-opacity="0.2"/>
<stop offset="1" stop-color="white" stop-opacity="0"/>
</linearGradient>
<linearGradient id="paint11_linear_0_1" x1="185.484" y1="81.8743" x2="148.051" y2="114.396" gradientUnits="userSpaceOnUse">
<stop stop-color="white"/>
<stop offset="0.0001" stop-color="white" stop-opacity="0.2"/>
<stop offset="1" stop-color="white" stop-opacity="0"/>
</linearGradient>
</defs>
</svg>
