<svg width="126" height="157" viewBox="0 0 126 157" fill="none" xmlns="http://www.w3.org/2000/svg">
<path d="M51.4002 79.5119L49.5953 77.7071L16.6601 44.7718L12.3047 40.4164C7.8541 35.9658 0.25 39.1193 0.25 45.4104V111.939C0.25 115.839 3.41143 119 7.31067 119H18.9766C20.8489 119 22.6458 118.254 23.9707 116.933L24.7164 116.188L37.4058 103.498L51.4002 89.5039C54.157 86.7471 54.157 82.2727 51.4002 79.5159V79.5119Z" fill="#FF4405"/>
<path d="M16.2298 31.9713C25.0585 31.9713 32.2155 24.8143 32.2155 15.9857C32.2155 7.15703 25.0585 0 16.2298 0C7.40117 0 0.244141 7.15703 0.244141 15.9857C0.244141 24.8143 7.40117 31.9713 16.2298 31.9713Z" fill="#FF4405"/>
<path d="M124.855 45.2397V111.939C124.855 115.838 121.694 119 117.794 119H51.0948C44.8036 119 41.6501 111.392 46.1007 106.945L62.4632 90.5827L66.0888 86.9611L68.5402 84.5097L93.7047 59.3452L112.8 40.2497C117.251 35.7991 124.855 38.9526 124.855 45.2437V45.2397Z" fill="#FF4405"/>
<path d="M108.868 31.9713C117.696 31.9713 124.853 24.8143 124.853 15.9857C124.853 7.15703 117.696 0 108.868 0C100.039 0 92.8818 7.15703 92.8818 15.9857C92.8818 24.8143 100.039 31.9713 108.868 31.9713Z" fill="#FF4405"/>
<path d="M62.5492 23.7762C69.1149 23.7762 74.4373 18.4537 74.4373 11.8881C74.4373 5.32248 69.1149 0 62.5492 0C55.9836 0 50.6611 5.32248 50.6611 11.8881C50.6611 18.4537 55.9836 23.7762 62.5492 23.7762Z" fill="#FF4405"/>
<path d="M83.6937 48.5427L66.1942 31.0432C64.1804 29.0294 60.9153 29.0294 58.9015 31.0432L41.402 48.5427C39.3882 50.5565 39.3882 53.8215 41.402 55.8353L58.9015 73.3348C60.9153 75.3486 64.1804 75.3486 66.1942 73.3348L83.6937 55.8353C85.7075 53.8215 85.7075 50.5565 83.6937 48.5427Z" fill="#FF4405"/>
<path d="M0 133.382H9.6102V136.645H3.4924V141.258H9.33042V144.521H3.4924V152.245H0V133.382Z" fill="black"/>
<path d="M26.3056 152.245H23.1955V150.486C22.1251 151.76 20.0349 152.703 18.2505 152.703C14.6052 152.703 11.3682 149.798 11.3682 145.083C11.3682 140.749 14.5287 137.615 18.4538 137.615C21.3346 137.615 23.0426 139.679 23.1434 139.884H23.1955V138.099H26.3056V152.246V152.245ZM18.9646 140.723C16.1863 140.723 14.7581 143.119 14.7581 145.236C14.7581 147.632 16.5425 149.595 18.9646 149.595C21.3867 149.595 23.0946 147.76 23.0946 145.135C23.0946 142.204 20.9784 140.725 18.9646 140.725V140.723Z" fill="black"/>
<path d="M28.8779 138.098H31.9881V139.295H32.0385C32.3183 138.836 33.2878 137.613 35.7342 137.613C36.4988 137.613 38.4865 137.792 39.8122 139.83C41.2908 137.714 43.3811 137.613 44.375 137.613C47.1533 137.613 48.531 139.092 49.0402 139.806C49.6014 140.544 50.1105 141.896 50.1105 143.986V152.245H46.7206V144.395C46.7206 143.58 46.7206 140.723 44.0447 140.723C43.1013 140.723 42.1839 141.232 41.6991 142.049C41.2144 142.813 41.19 144.063 41.19 144.93V152.245H37.8001V144.395C37.8001 142.457 37.0616 140.723 34.9713 140.723C32.2695 140.723 32.2695 143.68 32.2695 145.183V152.245H28.8796V138.098H28.8779Z" fill="black"/>
<path d="M52.8125 133.382H56.2024V136.492H52.8125V133.382ZM52.8125 138.098H56.2024V152.245H52.8125V138.098Z" fill="black"/>
<path d="M58.9541 133.382H62.344V152.245H58.9541V133.382Z" fill="black"/>
<path d="M69.0738 150.919L63.8994 138.098H67.7741L70.9867 147.173L74.4026 138.098H78.2513L70.1197 156.96H66.4744L69.0738 150.919Z" fill="black"/>
<path d="M87.4502 133.382H90.9426V148.982H96.7042V152.245H87.4518V133.382H87.4502Z" fill="black"/>
<path d="M98.1797 133.382H101.57V136.492H98.1797V133.382ZM98.1797 138.098H101.57V152.245H98.1797V138.098Z" fill="black"/>
<path d="M104.527 141.106H103.328V138.098H104.527C104.603 137.154 104.756 135.422 106.184 134.147C106.975 133.408 108.096 133 109.142 133H110.085V136.339C108.785 136.366 108.021 136.39 107.919 138.098H109.906V141.106H107.919V152.245H104.529V141.106H104.527Z" fill="black"/>
<path d="M114.442 146.688C114.595 147.606 115.921 149.595 118.343 149.595C119.848 149.595 120.968 148.957 121.606 147.784H125.175C124.36 150.333 121.682 152.703 118.345 152.703C114.037 152.703 110.875 149.34 110.875 145.209C110.875 141.079 113.832 137.613 118.319 137.613C122.805 137.613 125.634 141.411 125.634 144.98C125.634 145.642 125.531 146.229 125.43 146.688H114.444H114.442ZM122.164 143.96C121.782 141.691 120.15 140.723 118.341 140.723C116.965 140.723 114.976 141.335 114.34 143.96H122.166H122.164Z" fill="black"/>
</svg>
